<?xml version="1.0" encoding="UTF-8"?>
<svg width="92px" height="54px" viewBox="0 0 92 54" version="1.1" xmlns="http://www.w3.org/2000/svg" xmlns:xlink="http://www.w3.org/1999/xlink">
    <!-- Generator: Sketch 42 (36781) - http://www.bohemiancoding.com/sketch -->
    <title>Shape</title>
    <desc>Created with Sketch.</desc>
    <defs></defs>
    <g id="Page-1" stroke="none" stroke-width="1" fill="none" fill-rule="evenodd">
        <g id="noun_342917_cc" transform="translate(-4.000000, 0.000000)" fill-rule="nonzero" fill="#000000">
            <path d="M77.332,18.346 C76.413,18.346 75.518,18.438 74.637,18.573 L71.386,3.241 C71.377,3.199 71.351,3.168 71.337,3.128 C71.315,3.064 71.292,3.002 71.257,2.944 C71.223,2.887 71.183,2.839 71.139,2.791 C71.098,2.745 71.058,2.703 71.009,2.665 C70.951,2.621 70.889,2.589 70.823,2.558 C70.788,2.542 70.762,2.514 70.724,2.502 L63.818,0.205 C63.296,0.03 62.73,0.314 62.556,0.837 C62.382,1.36 62.665,1.925 63.189,2.099 L69.552,4.215 L70.667,9.476 L36.725,9.476 L36.018,5.89 C35.998,5.786 35.95,5.697 35.902,5.609 L42.547,5.609 C43.098,5.609 43.545,5.162 43.545,4.611 C43.545,4.06 43.098,3.613 42.547,3.613 L29.179,3.613 C28.628,3.613 28.181,4.06 28.181,4.611 C28.181,5.162 28.628,5.609 29.179,5.609 L34.175,5.609 C34.066,5.807 34.012,6.037 34.059,6.276 L34.857,10.323 L29.873,19.898 C27.669,18.912 25.236,18.347 22.667,18.347 C12.879,18.347 4.916,26.31 4.916,36.098 C4.916,45.887 12.879,53.849 22.667,53.849 C30.033,53.849 36.325,49.322 39,42.915 L39.417,43.057 C39.423,43.059 39.429,43.058 39.436,43.06 C40.052,43.339 40.73,43.503 41.449,43.503 C44.153,43.503 46.353,41.304 46.353,38.6 C46.353,37.864 46.179,37.173 45.887,36.546 L72.253,16.952 L72.684,18.984 C65.147,21.035 59.582,27.919 59.582,36.096 C59.582,45.885 67.545,53.847 77.333,53.847 C87.121,53.847 95.084,45.884 95.084,36.096 C95.083,26.308 87.12,18.346 77.332,18.346 Z M35.476,13.459 L38.294,27.754 C36.754,24.874 34.451,22.472 31.647,20.814 L35.476,13.459 Z M42.122,36.855 L41.902,35.737 C42.317,35.803 42.704,35.949 43.042,36.171 L42.122,36.855 Z M36.789,40.052 L26.768,36.638 L37.329,35.959 C36.838,36.723 36.544,37.626 36.544,38.6 C36.545,39.109 36.645,39.59 36.789,40.052 Z M24.371,34.792 L30.725,22.586 C34.721,24.982 37.57,29.091 38.245,33.899 L24.371,34.792 Z M22.668,51.851 C13.981,51.851 6.913,44.783 6.913,36.096 C6.913,27.409 13.98,20.341 22.668,20.341 C24.904,20.341 27.027,20.819 28.954,21.663 L21.952,35.115 C21.59,35.165 21.267,35.404 21.141,35.774 C20.964,36.295 21.242,36.863 21.764,37.04 L37.114,42.27 C34.708,47.891 29.158,51.851 22.668,51.851 Z M44.356,38.6 C44.356,40.203 43.052,41.507 41.449,41.507 C39.846,41.507 38.541,40.203 38.541,38.6 C38.541,37.549 39.106,36.636 39.944,36.125 L40.47,38.793 C40.472,38.801 40.477,38.807 40.478,38.814 C40.487,38.855 40.509,38.891 40.523,38.93 C40.552,39.011 40.583,39.089 40.63,39.157 C40.638,39.169 40.639,39.183 40.648,39.195 C40.663,39.215 40.687,39.223 40.704,39.241 C40.776,39.325 40.859,39.393 40.954,39.449 C40.988,39.469 41.018,39.49 41.053,39.505 C41.177,39.56 41.309,39.597 41.449,39.597 L41.45,39.597 L41.451,39.597 L41.454,39.597 C41.516,39.597 41.579,39.591 41.643,39.579 C41.66,39.576 41.672,39.564 41.689,39.56 C41.776,39.539 41.857,39.502 41.938,39.457 C41.966,39.441 41.998,39.431 42.024,39.413 C42.031,39.408 42.039,39.407 42.046,39.402 L44.226,37.782 C44.302,38.042 44.356,38.313 44.356,38.6 Z M44.689,34.948 C43.835,34.189 42.727,33.714 41.5,33.701 L37.118,11.471 L71.09,11.471 L71.797,14.803 L44.689,34.948 Z M77.332,51.851 C68.645,51.851 61.577,44.783 61.577,36.096 C61.577,28.878 66.463,22.793 73.097,20.936 L76.355,36.302 C76.454,36.772 76.87,37.094 77.331,37.094 C77.399,37.094 77.469,37.087 77.539,37.073 C78.079,36.958 78.423,36.429 78.309,35.89 L75.051,20.527 C75.798,20.418 76.555,20.343 77.332,20.343 C86.019,20.343 93.087,27.41 93.087,36.098 C93.087,44.786 86.019,51.851 77.332,51.851 Z" id="Shape"></path>
        </g>
    </g>
</svg>