<?xml version="1.0" encoding="UTF-8"?>
<svg width="100px" height="97px" viewBox="0 0 100 97" version="1.1" xmlns="http://www.w3.org/2000/svg" xmlns:xlink="http://www.w3.org/1999/xlink">
    <!-- Generator: Sketch 42 (36781) - http://www.bohemiancoding.com/sketch -->
    <title>House</title>
    <desc>Created with Sketch.</desc>
    <defs></defs>
    <g id="Page-1" stroke="none" stroke-width="1" fill="none" fill-rule="evenodd">
        <path d="M73.549,54.3445 L79.747,54.3445 L79.747,48.1465 L73.549,48.1465 L73.549,54.3445 Z M73.549,69.7595 L79.747,69.7595 L79.747,56.6375 L73.549,56.6375 L73.549,69.7595 Z M64.943,54.3445 L71.141,54.3445 L71.141,48.1465 L64.943,48.1465 L64.943,54.3445 Z M64.943,69.7595 L71.141,69.7595 L71.141,56.6375 L64.943,56.6375 L64.943,69.7595 Z M49.539,32.3915 C47.023,32.3915 44.982,30.3465 44.982,27.8305 C44.982,25.3055 47.023,23.2685 49.539,23.2685 C52.064,23.2685 54.101,25.3055 54.101,27.8305 C54.101,30.3465 52.064,32.3915 49.539,32.3915 L49.539,32.3915 Z M27.943,54.3445 L34.141,54.3445 L34.141,48.1465 L27.943,48.1465 L27.943,54.3445 Z M27.943,69.7595 L34.141,69.7595 L34.141,56.6375 L27.943,56.6375 L27.943,69.7595 Z M19.34,54.3445 L25.533,54.3445 L25.533,48.1465 L19.34,48.1465 L19.34,54.3445 Z M19.34,69.7595 L25.533,69.7595 L25.533,56.6375 L19.34,56.6375 L19.34,69.7595 Z M49.543,0.0005 L0,31.1565 L0,43.6265 L3.944,41.1455 L3.944,96.3975 L49.544,96.3975 L95.216,96.3975 L95.152,41.1515 L99.086,43.6265 L99.086,31.1565 L49.543,0.0005 Z" id="House" fill="#1C1F3C"></path>
    </g>
</svg>