<?xml version="1.0" encoding="UTF-8"?>
<svg width="64px" height="128px" viewBox="0 0 64 128" version="1.1" xmlns="http://www.w3.org/2000/svg" xmlns:xlink="http://www.w3.org/1999/xlink">
    <!-- Generator: Sketch 42 (36781) - http://www.bohemiancoding.com/sketch -->
    <title>Page 1</title>
    <desc>Created with Sketch.</desc>
    <defs>
        <polygon id="path-1" points="31.92405 127.695 63.848 127.695 63.848 -1.42108547e-14 31.92405 -2.84217094e-14 0.0001 -1.42108547e-14 0.0001 127.695 31.92405 127.695"></polygon>
    </defs>
    <g id="Page-1" stroke="none" stroke-width="1" fill="none" fill-rule="evenodd">
        <g>
            <mask id="mask-2" fill="white">
                <use xlink:href="#path-1"></use>
            </mask>
            <g id="Clip-2"></g>
            <path d="M61.2321,103.362 C61.2321,104.068 60.6601,104.639 59.9551,104.639 L3.8151,104.639 C3.1101,104.639 2.5381,104.068 2.5381,103.362 L2.5381,17.239 C2.5381,16.534 3.1101,15.962 3.8151,15.962 L59.9551,15.962 C60.6601,15.962 61.2321,16.534 61.2321,17.239 L61.2321,103.362 Z M31.9241,122.141 C28.1281,122.141 25.0511,119.063 25.0511,115.267 C25.0511,111.471 28.1281,108.393 31.9241,108.393 C35.7201,108.393 38.7981,111.471 38.7981,115.267 C38.7981,119.063 35.7201,122.141 31.9241,122.141 L31.9241,122.141 Z M58.7211,-1.42108547e-14 L5.1281,-1.42108547e-14 C2.3081,-1.42108547e-14 0.0001,2.308 0.0001,5.128 L0.0001,122.568 C0.0001,125.388 2.3081,127.695 5.1281,127.695 L58.7201,127.695 C61.5411,127.695 63.8481,125.388 63.8481,122.568 L63.8481,5.128 C63.8481,2.308 61.5411,-1.42108547e-14 58.7211,-1.42108547e-14 L58.7211,-1.42108547e-14 Z" id="Fill-1" fill="#1C1F3C" mask="url(#mask-2)"></path>
        </g>
    </g>
</svg>